<?xml version="1.0" encoding="UTF-8" standalone="no"?>
<!DOCTYPE svg PUBLIC "-//W3C//DTD SVG 1.1//EN" "http://www.w3.org/Graphics/SVG/1.1/DTD/svg11.dtd">
<svg width="100%" height="100%" viewBox="0 0 2555 944" version="1.1" xmlns="http://www.w3.org/2000/svg" xmlns:xlink="http://www.w3.org/1999/xlink" xml:space="preserve" xmlns:serif="http://www.serif.com/" style="fill-rule:evenodd;clip-rule:evenodd;stroke-linejoin:round;stroke-miterlimit:2;">
    <g transform="matrix(1,0,0,1,-175.561,-472.421)">
        <g transform="matrix(1,0,0,1,-200.913,142.313)">
            <g transform="matrix(627.955,0,0,627.955,342.44,1273.19)">
                <path d="M0.054,-0C0.064,-0.098 0.072,-0.207 0.077,-0.327C0.083,-0.448 0.087,-0.561 0.088,-0.667C0.121,-0.666 0.149,-0.666 0.171,-0.666C0.186,-0.666 0.21,-0.666 0.243,-0.667C0.238,-0.608 0.234,-0.541 0.231,-0.466L0.221,-0.271C0.218,-0.215 0.216,-0.159 0.214,-0.104L0.299,-0.103C0.377,-0.103 0.429,-0.103 0.454,-0.103C0.479,-0.104 0.503,-0.105 0.527,-0.106C0.524,-0.074 0.522,-0.039 0.52,-0C0.434,-0.001 0.361,-0.001 0.3,-0.001L0.146,-0L0.054,-0Z" style="fill-rule:nonzero;"/>
            </g>
            <g transform="matrix(627.955,0,0,627.955,679.72,1273.19)">
                <path d="M0.059,-0C0.066,-0.112 0.073,-0.227 0.078,-0.344C0.082,-0.462 0.085,-0.552 0.085,-0.614L0.084,-0.667L0.166,-0.666C0.171,-0.666 0.195,-0.666 0.241,-0.667C0.227,-0.495 0.219,-0.273 0.215,-0L0.144,-0.001C0.132,-0.001 0.103,-0.001 0.059,-0Z" style="fill-rule:nonzero;"/>
            </g>
            <g transform="matrix(627.955,0,0,627.955,864.304,1273.19)">
                <path d="M0.059,-0C0.065,-0.069 0.069,-0.125 0.071,-0.169C0.074,-0.213 0.077,-0.288 0.08,-0.395C0.084,-0.501 0.086,-0.574 0.086,-0.613C0.086,-0.625 0.085,-0.643 0.085,-0.667C0.126,-0.666 0.16,-0.666 0.187,-0.666C0.214,-0.666 0.248,-0.666 0.288,-0.667C0.328,-0.668 0.361,-0.668 0.387,-0.668C0.424,-0.668 0.451,-0.667 0.47,-0.664C0.488,-0.661 0.504,-0.656 0.519,-0.65C0.533,-0.644 0.545,-0.636 0.555,-0.627C0.564,-0.618 0.573,-0.608 0.58,-0.595C0.587,-0.583 0.592,-0.57 0.595,-0.556C0.599,-0.542 0.601,-0.527 0.601,-0.513C0.601,-0.494 0.598,-0.477 0.594,-0.461C0.59,-0.444 0.583,-0.429 0.575,-0.416C0.567,-0.403 0.557,-0.392 0.546,-0.383C0.535,-0.373 0.524,-0.366 0.514,-0.361C0.504,-0.356 0.491,-0.35 0.474,-0.344C0.489,-0.341 0.501,-0.338 0.51,-0.335C0.519,-0.332 0.529,-0.327 0.54,-0.321C0.55,-0.314 0.56,-0.306 0.569,-0.296C0.578,-0.286 0.586,-0.276 0.591,-0.265C0.597,-0.254 0.601,-0.241 0.604,-0.228C0.607,-0.214 0.609,-0.2 0.609,-0.186C0.609,-0.154 0.602,-0.126 0.589,-0.1C0.575,-0.074 0.556,-0.053 0.533,-0.038C0.509,-0.023 0.482,-0.013 0.453,-0.008C0.423,-0.003 0.361,-0 0.265,-0L0.147,-0L0.059,-0ZM0.218,-0.39L0.297,-0.39C0.33,-0.39 0.353,-0.391 0.364,-0.393C0.376,-0.394 0.388,-0.397 0.401,-0.402C0.413,-0.407 0.424,-0.414 0.433,-0.424C0.441,-0.434 0.448,-0.445 0.452,-0.457C0.456,-0.469 0.458,-0.481 0.458,-0.493C0.458,-0.505 0.456,-0.517 0.451,-0.527C0.447,-0.538 0.44,-0.547 0.431,-0.554C0.422,-0.561 0.411,-0.566 0.398,-0.569C0.385,-0.572 0.367,-0.574 0.342,-0.574L0.225,-0.574L0.218,-0.39ZM0.207,-0.095L0.317,-0.095C0.34,-0.095 0.357,-0.096 0.37,-0.098C0.382,-0.1 0.394,-0.103 0.406,-0.107C0.417,-0.112 0.426,-0.117 0.433,-0.122C0.439,-0.127 0.445,-0.134 0.45,-0.142C0.455,-0.15 0.459,-0.16 0.462,-0.17C0.465,-0.18 0.466,-0.191 0.466,-0.202C0.466,-0.217 0.464,-0.23 0.458,-0.242C0.453,-0.253 0.446,-0.263 0.435,-0.271C0.425,-0.28 0.413,-0.286 0.399,-0.289C0.386,-0.293 0.365,-0.295 0.337,-0.295L0.214,-0.295L0.207,-0.095Z" style="fill-rule:nonzero;"/>
            </g>
            <g transform="matrix(627.955,0,0,627.955,1274.87,1273.19)">
                <path d="M0.057,-0C0.066,-0.097 0.074,-0.208 0.079,-0.334C0.084,-0.46 0.086,-0.571 0.086,-0.667C0.125,-0.666 0.158,-0.666 0.184,-0.666C0.213,-0.666 0.24,-0.666 0.267,-0.667C0.295,-0.668 0.323,-0.668 0.354,-0.668C0.391,-0.668 0.425,-0.666 0.455,-0.662C0.485,-0.658 0.511,-0.648 0.534,-0.633C0.557,-0.618 0.574,-0.599 0.586,-0.577C0.597,-0.555 0.603,-0.53 0.603,-0.501C0.603,-0.483 0.6,-0.465 0.596,-0.449C0.592,-0.433 0.586,-0.417 0.577,-0.403C0.569,-0.388 0.559,-0.375 0.548,-0.365C0.536,-0.354 0.525,-0.345 0.514,-0.339C0.503,-0.332 0.49,-0.327 0.476,-0.322C0.461,-0.318 0.442,-0.312 0.418,-0.306L0.451,-0.241C0.462,-0.221 0.482,-0.184 0.512,-0.131L0.562,-0.044C0.564,-0.04 0.572,-0.025 0.585,-0C0.545,-0.001 0.519,-0.001 0.506,-0.001C0.49,-0.001 0.463,-0.001 0.423,-0L0.369,-0.13C0.36,-0.15 0.348,-0.173 0.335,-0.2L0.276,-0.319C0.27,-0.33 0.262,-0.347 0.252,-0.369C0.274,-0.365 0.293,-0.363 0.311,-0.363C0.339,-0.363 0.365,-0.367 0.388,-0.376C0.411,-0.386 0.429,-0.4 0.441,-0.419C0.454,-0.438 0.46,-0.458 0.46,-0.481C0.46,-0.495 0.457,-0.507 0.452,-0.519C0.447,-0.531 0.438,-0.541 0.425,-0.549C0.412,-0.557 0.397,-0.562 0.379,-0.564C0.362,-0.567 0.344,-0.568 0.327,-0.568C0.317,-0.568 0.304,-0.568 0.287,-0.567C0.27,-0.567 0.249,-0.567 0.224,-0.567L0.215,-0.366L0.206,-0L0.13,-0.001C0.118,-0.001 0.094,-0.001 0.057,-0Z" style="fill-rule:nonzero;"/>
            </g>
            <g transform="matrix(627.955,0,0,627.955,1671.02,1273.19)">
                <path d="M-0.031,-0C0.003,-0.06 0.043,-0.134 0.088,-0.222L0.217,-0.469C0.257,-0.545 0.29,-0.611 0.317,-0.667C0.359,-0.666 0.389,-0.666 0.406,-0.666C0.437,-0.666 0.468,-0.666 0.497,-0.667L0.567,-0.467L0.719,-0.054L0.74,-0L0.667,-0.001C0.65,-0.001 0.621,-0.001 0.581,-0C0.573,-0.029 0.561,-0.068 0.544,-0.117C0.528,-0.166 0.513,-0.206 0.502,-0.237L0.245,-0.237C0.207,-0.159 0.169,-0.08 0.133,-0L0.054,-0.001C0.039,-0.001 0.011,-0.001 -0.031,-0ZM0.288,-0.338L0.475,-0.338L0.398,-0.564L0.359,-0.482L0.288,-0.338Z" style="fill-rule:nonzero;"/>
            </g>
            <g transform="matrix(627.955,0,0,627.955,2143.82,1273.19)">
                <path d="M0.057,-0C0.066,-0.097 0.074,-0.208 0.079,-0.334C0.084,-0.46 0.086,-0.571 0.086,-0.667C0.125,-0.666 0.158,-0.666 0.184,-0.666C0.213,-0.666 0.24,-0.666 0.267,-0.667C0.295,-0.668 0.323,-0.668 0.354,-0.668C0.391,-0.668 0.425,-0.666 0.455,-0.662C0.485,-0.658 0.511,-0.648 0.534,-0.633C0.557,-0.618 0.574,-0.599 0.586,-0.577C0.597,-0.555 0.603,-0.53 0.603,-0.501C0.603,-0.483 0.6,-0.465 0.596,-0.449C0.592,-0.433 0.586,-0.417 0.577,-0.403C0.569,-0.388 0.559,-0.375 0.548,-0.365C0.536,-0.354 0.525,-0.345 0.514,-0.339C0.503,-0.332 0.49,-0.327 0.476,-0.322C0.461,-0.318 0.442,-0.312 0.418,-0.306L0.451,-0.241C0.462,-0.221 0.482,-0.184 0.512,-0.131L0.562,-0.044C0.564,-0.04 0.572,-0.025 0.585,-0C0.545,-0.001 0.519,-0.001 0.506,-0.001C0.49,-0.001 0.463,-0.001 0.423,-0L0.369,-0.13C0.36,-0.15 0.348,-0.173 0.335,-0.2L0.276,-0.319C0.27,-0.33 0.262,-0.347 0.252,-0.369C0.274,-0.365 0.293,-0.363 0.311,-0.363C0.339,-0.363 0.365,-0.367 0.388,-0.376C0.411,-0.386 0.429,-0.4 0.441,-0.419C0.454,-0.438 0.46,-0.458 0.46,-0.481C0.46,-0.495 0.457,-0.507 0.452,-0.519C0.447,-0.531 0.438,-0.541 0.425,-0.549C0.412,-0.557 0.397,-0.562 0.379,-0.564C0.362,-0.567 0.344,-0.568 0.327,-0.568C0.317,-0.568 0.304,-0.568 0.287,-0.567C0.27,-0.567 0.249,-0.567 0.224,-0.567L0.215,-0.366L0.206,-0L0.13,-0.001C0.118,-0.001 0.094,-0.001 0.057,-0Z" style="fill-rule:nonzero;"/>
            </g>
            <g transform="matrix(627.955,0,0,627.955,2539.97,1273.19)">
                <path d="M0.193,-0C0.197,-0.036 0.201,-0.083 0.205,-0.142C0.209,-0.2 0.211,-0.246 0.212,-0.281L-0.007,-0.667C0.03,-0.666 0.059,-0.666 0.079,-0.666C0.099,-0.666 0.125,-0.666 0.157,-0.667C0.172,-0.633 0.193,-0.59 0.221,-0.538C0.249,-0.486 0.273,-0.438 0.293,-0.395L0.439,-0.629C0.443,-0.638 0.451,-0.65 0.46,-0.667C0.492,-0.666 0.52,-0.666 0.544,-0.666C0.557,-0.666 0.583,-0.666 0.623,-0.667L0.356,-0.271L0.35,-0.147C0.348,-0.111 0.347,-0.062 0.346,-0C0.311,-0.001 0.285,-0.001 0.269,-0.001C0.253,-0.001 0.228,-0.001 0.193,-0Z" style="fill-rule:nonzero;"/>
            </g>
        </g>
        <g transform="matrix(0.632567,0,0,0.632567,1392.7,104.835)">
            <g transform="matrix(627.955,0,0,627.955,342.44,1273.19)">
                <path d="M0.059,-0L0.067,-0.116L0.08,-0.372L0.085,-0.558C0.086,-0.575 0.086,-0.592 0.086,-0.609C0.086,-0.622 0.086,-0.641 0.085,-0.667C0.127,-0.666 0.161,-0.666 0.187,-0.666C0.208,-0.666 0.237,-0.666 0.274,-0.667C0.311,-0.668 0.341,-0.668 0.362,-0.668C0.407,-0.668 0.44,-0.665 0.461,-0.659C0.484,-0.652 0.504,-0.64 0.521,-0.625C0.537,-0.61 0.55,-0.591 0.559,-0.57C0.569,-0.546 0.574,-0.52 0.574,-0.492C0.574,-0.45 0.563,-0.412 0.542,-0.378C0.521,-0.343 0.492,-0.318 0.455,-0.301C0.418,-0.284 0.377,-0.275 0.332,-0.275C0.309,-0.275 0.286,-0.278 0.261,-0.282C0.254,-0.316 0.245,-0.348 0.236,-0.377C0.256,-0.373 0.276,-0.371 0.296,-0.371C0.323,-0.371 0.347,-0.375 0.366,-0.383C0.386,-0.391 0.402,-0.405 0.414,-0.423C0.425,-0.441 0.431,-0.462 0.431,-0.485C0.431,-0.499 0.429,-0.512 0.424,-0.523C0.419,-0.534 0.412,-0.543 0.403,-0.55C0.393,-0.557 0.383,-0.562 0.372,-0.564C0.361,-0.567 0.345,-0.568 0.324,-0.568C0.306,-0.568 0.287,-0.568 0.269,-0.567C0.25,-0.566 0.234,-0.566 0.22,-0.566C0.216,-0.502 0.213,-0.441 0.211,-0.383L0.205,-0.196C0.203,-0.13 0.202,-0.082 0.202,-0.051C0.202,-0.039 0.202,-0.022 0.203,-0L0.132,-0.001C0.123,-0.001 0.098,-0.001 0.059,-0Z" style="fill:rgb(83,83,83);fill-rule:nonzero;"/>
            </g>
            <g transform="matrix(627.955,0,0,627.955,712.222,1273.19)">
                <path d="M0.553,-0C0.524,-0.001 0.502,-0.001 0.487,-0.001C0.468,-0.001 0.446,-0.001 0.421,-0L0.422,-0.081C0.413,-0.067 0.405,-0.056 0.398,-0.048C0.392,-0.04 0.383,-0.032 0.372,-0.024C0.36,-0.016 0.348,-0.009 0.335,-0.005C0.322,0 0.307,0.004 0.291,0.007C0.274,0.01 0.256,0.012 0.237,0.012C0.201,0.012 0.169,0.006 0.142,-0.004C0.115,-0.015 0.094,-0.031 0.078,-0.052C0.062,-0.074 0.054,-0.104 0.054,-0.145L0.054,-0.155L0.062,-0.281L0.07,-0.447C0.07,-0.46 0.07,-0.477 0.07,-0.497C0.101,-0.496 0.125,-0.496 0.143,-0.496C0.161,-0.496 0.184,-0.496 0.21,-0.497L0.194,-0.274C0.193,-0.257 0.192,-0.242 0.192,-0.23C0.191,-0.218 0.191,-0.21 0.191,-0.205C0.191,-0.181 0.194,-0.162 0.201,-0.146C0.208,-0.131 0.22,-0.119 0.238,-0.111C0.255,-0.103 0.274,-0.099 0.294,-0.099C0.313,-0.099 0.33,-0.102 0.347,-0.109C0.363,-0.116 0.376,-0.125 0.387,-0.137C0.398,-0.148 0.407,-0.164 0.414,-0.184C0.42,-0.198 0.424,-0.218 0.427,-0.244C0.429,-0.262 0.431,-0.292 0.433,-0.336C0.436,-0.389 0.438,-0.442 0.439,-0.497C0.471,-0.496 0.496,-0.496 0.513,-0.496C0.532,-0.496 0.554,-0.496 0.578,-0.497C0.574,-0.45 0.57,-0.392 0.565,-0.322C0.561,-0.252 0.558,-0.195 0.557,-0.149C0.555,-0.104 0.554,-0.054 0.553,-0Z" style="fill:rgb(83,83,83);fill-rule:nonzero;"/>
            </g>
            <g transform="matrix(627.955,0,0,627.955,1104.69,1273.19)">
                <path d="M0.049,-0C0.055,-0.062 0.062,-0.169 0.069,-0.323C0.076,-0.476 0.079,-0.59 0.08,-0.667C0.109,-0.666 0.134,-0.666 0.155,-0.666C0.176,-0.666 0.199,-0.666 0.223,-0.667C0.217,-0.621 0.213,-0.563 0.21,-0.493C0.241,-0.499 0.267,-0.503 0.286,-0.505C0.305,-0.507 0.323,-0.508 0.342,-0.508C0.393,-0.508 0.436,-0.5 0.471,-0.484C0.506,-0.468 0.534,-0.441 0.555,-0.404C0.576,-0.367 0.587,-0.322 0.587,-0.269C0.587,-0.231 0.582,-0.195 0.571,-0.16C0.56,-0.125 0.545,-0.094 0.524,-0.067C0.503,-0.04 0.477,-0.02 0.447,-0.007C0.417,0.005 0.385,0.012 0.35,0.012C0.333,0.012 0.317,0.01 0.303,0.007C0.288,0.004 0.275,-0 0.263,-0.006C0.251,-0.012 0.24,-0.019 0.23,-0.027C0.22,-0.035 0.212,-0.042 0.206,-0.05C0.2,-0.058 0.192,-0.069 0.184,-0.083L0.182,-0C0.155,-0.001 0.134,-0.001 0.119,-0.001C0.107,-0.001 0.084,-0.001 0.049,-0ZM0.201,-0.393L0.197,-0.31C0.196,-0.292 0.195,-0.274 0.195,-0.257C0.195,-0.217 0.199,-0.185 0.208,-0.162C0.216,-0.139 0.23,-0.121 0.25,-0.108C0.269,-0.095 0.292,-0.089 0.316,-0.089C0.343,-0.089 0.367,-0.096 0.386,-0.111C0.406,-0.125 0.421,-0.146 0.432,-0.174C0.442,-0.202 0.448,-0.232 0.448,-0.263C0.448,-0.307 0.436,-0.343 0.412,-0.37C0.389,-0.397 0.354,-0.411 0.308,-0.411C0.293,-0.411 0.277,-0.409 0.261,-0.407C0.245,-0.405 0.225,-0.4 0.201,-0.393Z" style="fill:rgb(83,83,83);fill-rule:nonzero;"/>
            </g>
            <g transform="matrix(627.955,0,0,627.955,1495.33,1273.19)">
                <path d="M0.049,-0C0.054,-0.055 0.06,-0.154 0.067,-0.297C0.074,-0.439 0.078,-0.563 0.08,-0.667C0.114,-0.666 0.138,-0.666 0.152,-0.666C0.171,-0.666 0.195,-0.666 0.223,-0.667L0.211,-0.488L0.194,-0.091L0.192,-0C0.165,-0.001 0.143,-0.001 0.124,-0.001C0.118,-0.001 0.093,-0.001 0.049,-0Z" style="fill:rgb(83,83,83);fill-rule:nonzero;"/>
            </g>
            <g transform="matrix(627.955,0,0,627.955,1661.82,1273.19)">
                <path d="M0.076,-0.582C0.077,-0.615 0.078,-0.641 0.078,-0.659L0.078,-0.674C0.107,-0.674 0.131,-0.673 0.15,-0.673C0.175,-0.673 0.199,-0.674 0.221,-0.674C0.22,-0.666 0.219,-0.657 0.219,-0.646L0.216,-0.582C0.191,-0.582 0.169,-0.583 0.148,-0.583C0.127,-0.583 0.103,-0.582 0.076,-0.582ZM0.049,-0C0.054,-0.049 0.057,-0.09 0.059,-0.123C0.063,-0.175 0.065,-0.235 0.068,-0.303C0.07,-0.371 0.072,-0.435 0.073,-0.497C0.105,-0.496 0.129,-0.496 0.144,-0.496C0.159,-0.496 0.183,-0.496 0.215,-0.497C0.211,-0.44 0.207,-0.386 0.205,-0.334C0.202,-0.283 0.2,-0.224 0.199,-0.158C0.198,-0.091 0.197,-0.039 0.197,-0C0.167,-0.001 0.143,-0.001 0.126,-0.001C0.109,-0.001 0.083,-0.001 0.049,-0Z" style="fill:rgb(83,83,83);fill-rule:nonzero;"/>
            </g>
            <g transform="matrix(627.955,0,0,627.955,1829.23,1273.19)">
                <path d="M0.438,-0.113C0.436,-0.099 0.434,-0.084 0.431,-0.067C0.427,-0.05 0.424,-0.029 0.42,-0.004C0.374,0.006 0.328,0.012 0.283,0.012C0.256,0.012 0.231,0.009 0.207,0.004C0.182,-0 0.159,-0.009 0.138,-0.022C0.117,-0.034 0.099,-0.051 0.083,-0.071C0.067,-0.092 0.055,-0.117 0.047,-0.146C0.039,-0.175 0.035,-0.205 0.035,-0.236C0.035,-0.277 0.042,-0.316 0.055,-0.354C0.068,-0.392 0.087,-0.423 0.113,-0.447C0.138,-0.47 0.166,-0.487 0.198,-0.495C0.229,-0.504 0.263,-0.508 0.301,-0.508C0.322,-0.508 0.344,-0.507 0.367,-0.505C0.389,-0.502 0.416,-0.497 0.446,-0.49L0.454,-0.383C0.405,-0.399 0.363,-0.408 0.327,-0.408C0.305,-0.408 0.284,-0.404 0.264,-0.396C0.245,-0.389 0.228,-0.377 0.214,-0.361C0.199,-0.345 0.189,-0.326 0.183,-0.305C0.177,-0.284 0.174,-0.262 0.174,-0.24C0.174,-0.209 0.179,-0.183 0.189,-0.16C0.198,-0.137 0.215,-0.12 0.238,-0.107C0.262,-0.095 0.288,-0.089 0.318,-0.089C0.333,-0.089 0.351,-0.091 0.371,-0.094C0.392,-0.098 0.415,-0.104 0.438,-0.113Z" style="fill:rgb(83,83,83);fill-rule:nonzero;"/>
            </g>
        </g>
        <g transform="matrix(1,0,0,1,0,-20)">
            <path d="M693.728,736.188C628.836,804.225 590.308,889.084 590.308,981.065C638.685,881.117 761.637,794.954 917.188,756.085C866.17,741.221 811.422,732.992 754.768,732.992C734.147,732.992 713.778,734.083 693.728,736.188ZM1122.87,576.646C1179.82,625.097 1226.44,684.56 1259.19,751.544C1423.83,787.903 1555.02,877.013 1605.38,981.065C1605.38,764.297 1391.4,587.085 1122.87,576.646ZM963.246,590.578C1031.79,624.305 1090.37,674.14 1133.46,734.909C1125.11,734.517 1116.71,734.261 1108.26,734.145C1028.99,683.915 933.557,648.818 829.914,637.191C870.834,616.843 915.642,601.013 963.246,590.578Z" style="fill:rgb(168,130,43);"/>
        </g>
        <g transform="matrix(1.17153e-16,1.91325,-1.37101,8.39502e-17,1474.14,-74.3547)">
            <path d="M541.185,154.513C400.225,154.513 285.784,320.389 285.784,524.703C285.784,729.016 400.225,894.893 541.185,894.893C455.199,846.768 385.39,697.459 385.39,524.703C385.39,351.947 455.199,202.638 541.185,154.513Z" style="fill:rgb(124,103,53);"/>
        </g>
    </g>
</svg>
